<?xml version="1.0" encoding="UTF-8" standalone="no"?>
<!-- Created with Inkscape (http://www.inkscape.org/) -->

<svg
   xmlns:osb="http://www.openswatchbook.org/uri/2009/osb"
   xmlns:dc="http://purl.org/dc/elements/1.1/"
   xmlns:cc="http://creativecommons.org/ns#"
   xmlns:rdf="http://www.w3.org/1999/02/22-rdf-syntax-ns#"
   xmlns:svg="http://www.w3.org/2000/svg"
   xmlns="http://www.w3.org/2000/svg"
   xmlns:sodipodi="http://sodipodi.sourceforge.net/DTD/sodipodi-0.dtd"
   xmlns:inkscape="http://www.inkscape.org/namespaces/inkscape"
   width="1122"
   height="793"
   viewBox="0 0 296.86251 209.81458"
   version="1.1"
   id="svg8"
   inkscape:version="0.92.4 (5da689c313, 2019-01-14)"
   sodipodi:docname="illustration.svg">
  <defs
     id="defs2">
    <linearGradient
       id="linearGradient889"
       osb:paint="solid">
      <stop
         style="stop-color:#e5ddc8;stop-opacity:1;"
         offset="0"
         id="stop887" />
    </linearGradient>
    <linearGradient
       id="linearGradient883"
       osb:paint="solid">
      <stop
         style="stop-color:#000000;stop-opacity:1;"
         offset="0"
         id="stop881" />
    </linearGradient>
    <inkscape:path-effect
       effect="spiro"
       id="path-effect847"
       is_visible="true" />
    <filter
       style="color-interpolation-filters:sRGB;"
       inkscape:label="Drop Shadow"
       id="filter1719">
      <feFlood
         flood-opacity="0.305882"
         flood-color="rgb(0,0,0)"
         result="flood"
         id="feFlood1709" />
      <feComposite
         in="flood"
         in2="SourceGraphic"
         operator="in"
         result="composite1"
         id="feComposite1711" />
      <feGaussianBlur
         in="composite1"
         stdDeviation="1"
         result="blur"
         id="feGaussianBlur1713" />
      <feOffset
         dx="-3.96825"
         dy="0"
         result="offset"
         id="feOffset1715" />
      <feComposite
         in="SourceGraphic"
         in2="offset"
         operator="over"
         result="composite2"
         id="feComposite1717" />
    </filter>
  </defs>
  <sodipodi:namedview
     id="base"
     pagecolor="#262626"
     bordercolor="#666666"
     borderopacity="1.0"
     inkscape:pageopacity="1"
     inkscape:pageshadow="2"
     inkscape:zoom="0.40017825"
     inkscape:cx="588.73845"
     inkscape:cy="396.5"
     inkscape:document-units="px"
     inkscape:current-layer="g1742"
     showgrid="false"
     inkscape:pagecheckerboard="true"
     borderlayer="false"
     inkscape:showpageshadow="false"
     showborder="true"
     units="px"
     inkscape:window-width="1024"
     inkscape:window-height="560"
     inkscape:window-x="0"
     inkscape:window-y="0"
     inkscape:window-maximized="1"
     inkscape:snap-bbox="false"
     inkscape:snap-bbox-midpoints="true"
     inkscape:snap-nodes="false"
     inkscape:object-paths="true"
     inkscape:snap-intersection-paths="true"
     inkscape:snap-smooth-nodes="true"
     inkscape:snap-midpoints="true"
     inkscape:snap-page="true"
     inkscape:snap-text-baseline="true"
     inkscape:snap-center="true"
     inkscape:snap-to-guides="true"
     inkscape:snap-object-midpoints="true"
     inkscape:snap-others="false"
     inkscape:snap-global="true"
     inkscape:snap-bbox-edge-midpoints="false"
     inkscape:bbox-paths="true" />
  <metadata
     id="metadata5">
    <rdf:RDF>
      <cc:Work
         rdf:about="">
        <dc:format>image/svg+xml</dc:format>
        <dc:type
           rdf:resource="http://purl.org/dc/dcmitype/StillImage" />
        <dc:title />
      </cc:Work>
    </rdf:RDF>
  </metadata>
  <g
     inkscape:label="Capa 1"
     inkscape:groupmode="layer"
     id="layer1"
     transform="translate(0,-87.185426)">
    <rect
       style="opacity:1;fill:#e5ddc8;fill-opacity:1;stroke:none;stroke-width:0.26458335;stroke-opacity:0.12371132"
       id="rect815"
       width="298.72955"
       height="210.35539"
       x="-0.52264619"
       y="86.499855"
       inkscape:export-filename="/home/gregorio/Desktop/desing.png"
       inkscape:export-xdpi="96"
       inkscape:export-ydpi="96" />
  </g>
  <g
     inkscape:groupmode="layer"
     id="layer2"
     inkscape:label="Capa 2">
    <g
       id="g1742"
       transform="translate(0,9.9596112)">
      <text
         id="text820"
         y="154.37444"
         x="146.49431"
         style="font-style:oblique;font-variant:normal;font-weight:normal;font-stretch:normal;font-size:34.23002625px;line-height:1.25;font-family:'URW Gothic L';-inkscape-font-specification:'URW Gothic L, Normal Oblique';font-variant-ligatures:normal;font-variant-caps:normal;font-variant-numeric:normal;font-feature-settings:normal;text-align:center;letter-spacing:0px;word-spacing:0px;writing-mode:lr-tb;text-anchor:middle;fill:#000000;fill-opacity:1;stroke:none;stroke-width:0.5134486"
         xml:space="preserve"><tspan
           style="font-style:oblique;font-variant:normal;font-weight:normal;font-stretch:normal;font-size:34.23002625px;font-family:'URW Gothic L';-inkscape-font-specification:'URW Gothic L, Normal Oblique';font-variant-ligatures:normal;font-variant-caps:normal;font-variant-numeric:normal;font-feature-settings:normal;text-align:center;writing-mode:lr-tb;text-anchor:middle;fill:#004369;fill-opacity:1;stroke-width:0.5134486"
           y="154.37444"
           x="146.49431"
           id="tspan818"
           sodipodi:role="line">Design</tspan></text>
      <g
         transform="translate(-0.18244047,1.661392)"
         id="g1729">
        <path
           inkscape:connector-curvature="0"
           id="path1683"
           d="m 158.60015,35.213873 c -0.10991,0.0055 -0.21981,0.0113 -0.32969,0.01757 h -29.40699 c 0,0 4.91379,10.56067 16.08067,11.131622 0.009,5.29e-4 0.0177,0.0016 0.0269,0.0021 10.32274,0.157617 22.64672,1.202825 27.41745,5.013132 8.57637,6.849806 12.95587,16.816472 13.19868,27.404529 -0.24281,10.588056 -4.62231,20.55472 -13.19868,27.404524 -4.77073,3.81031 -17.09471,4.85552 -27.41745,5.01314 -0.009,0 -0.0179,0.002 -0.0269,0.002 -11.16688,0.57096 -16.08067,11.13162 -16.08067,11.13162 h 29.40699 c 0.10987,0.006 0.21978,0.0126 0.32969,0.0176 0.16523,-0.005 0.33042,-0.0106 0.49558,-0.0176 h 1.71308 l 0.045,-0.0625 c 22.93572,-1.16316 41.08954,-19.54814 42.19123,-42.253231 h 0.0491 c 8e-4,-0.102275 0.004,-0.20401 0.004,-0.30644 -1.6e-4,-0.310576 -0.005,-0.62003 -0.0119,-0.929143 0.007,-0.309113 0.0117,-0.618567 0.0119,-0.929143 0,-0.10243 -0.003,-0.204165 -0.004,-0.30644 h -0.0501 C 201.94251,54.842345 183.78931,36.457129 160.85376,35.29397 l -0.045,-0.06253 h -1.71308 c -0.16516,-0.0068 -0.33035,-0.01265 -0.49558,-0.01757 z M 139.3512,46.362029 c -0.45243,0.0056 -0.88599,0.01172 -1.31878,0.01963 0.42934,-0.0079 0.87007,-0.01405 1.31878,-0.01963 z m -2.88096,0.05271 c -0.42038,0.01056 -0.8098,0.02159 -1.20354,0.03359 0.3898,-0.01193 0.78759,-0.02307 1.20354,-0.03359 z m -2.57142,0.07803 c -0.35137,0.01281 -0.65671,0.02511 -0.9772,0.03824 0.31523,-0.01299 0.63202,-0.02558 0.9772,-0.03824 z m -2.08256,0.08475 c -0.28413,0.0131 -0.50734,0.02479 -0.75448,0.03721 0.24299,-0.01225 0.47553,-0.02426 0.75448,-0.03721 z m -1.60714,0.08061 c -0.85742,0.04699 -1.34565,0.0801 -1.34565,0.0801 0,0 0.56673,-0.03663 1.34565,-0.0801 z m -1.34565,64.169221 c 0,0 0.56672,0.0366 1.34565,0.0801 -0.85742,-0.047 -1.34565,-0.0801 -1.34565,-0.0801 z m 2.19831,0.1235 c 0.24298,0.0122 0.47553,0.0243 0.75448,0.0372 -0.28414,-0.0131 -0.50734,-0.0248 -0.75448,-0.0372 z m 1.85984,0.0837 c 0.31523,0.013 0.63201,0.0256 0.9772,0.0382 -0.35137,-0.0128 -0.65671,-0.0251 -0.9772,-0.0382 z m 2.34508,0.0827 c 0.3898,0.0119 0.78758,0.0231 1.20354,0.0336 -0.42039,-0.0106 -0.80979,-0.0216 -1.20354,-0.0336 z m 2.76572,0.0667 c 0.42934,0.008 0.87007,0.014 1.31878,0.0196 -0.45244,-0.006 -0.88599,-0.0118 -1.31878,-0.0196 z"
           style="display:inline;opacity:1;fill:#004369;fill-opacity:1;stroke:none;stroke-width:0.26458335;stroke-opacity:0.12371132" />
        <path
           style="fill:#db1f48;fill-opacity:1;stroke:none;stroke-width:0.26458335px;stroke-linecap:butt;stroke-linejoin:miter;stroke-opacity:1"
           d="m 181.873,42.592748 c -5.7376,-0.838571 -68.89263,-7.503687 -65.20529,7.245665 3.43353,13.734137 20.91518,-8.472707 25.41058,-3.97731 12.12891,12.128914 36.82787,-2.849445 40.99408,13.815363 1.03443,4.137753 -13.09824,-1.86521 -16.46735,-2.988245 -17.95065,-5.983552 -27.96403,1.246008 -41.54077,4.640192 -5.39213,1.348033 -16.9836,-5.755146 -19.0027,-5.082114 -2.24858,0.749524 -4.86115,2.729928 -4.86115,5.524037 0,20.186158 36.06976,2.443496 44.8552,1.767694 7.80639,-0.600493 13.15303,2.321259 20.32846,3.756345 4.14523,0.829046 19.05847,1.267881 18.56077,3.756348 -1.60869,8.043495 -16.82908,-2.235266 -20.99134,3.314423 -8.02766,10.703536 17.6023,8.029239 7.73365,17.897888 -2.32659,2.326592 -5.81806,0.858898 -8.17558,2.430576 -5.01638,3.344251 -12.76078,3.093464 -18.78173,3.093464 -4.77808,0 -39.90479,-12.280239 -38.44731,-3.535387 1.87593,11.255633 34.44157,22.668403 44.63423,21.212313 11.47479,-1.63926 27.10772,-8.00921 44.25123,-15.43064"
           id="path905"
           inkscape:connector-curvature="0"
           sodipodi:nodetypes="csscssssssccssscsc" />
        <path
           style="display:inline;opacity:1;fill:#01949a;fill-opacity:1;stroke:none;stroke-width:1;stroke-opacity:0.12371132;filter:url(#filter1719)"
           d="m 611.43359,133.0918 c -0.41544,0.0206 -0.83081,0.0427 -1.24609,0.0664 H 499.04297 c 0,0 18.57181,39.91434 60.77734,42.07227 0.0349,0.002 0.0669,0.006 0.10157,0.008 39.01506,0.59572 85.59387,4.54611 103.625,18.94727 32.41462,25.88903 48.96705,63.55832 49.88476,103.57617 -0.91771,40.01785 -17.47016,77.68713 -49.88476,103.57617 -18.03111,14.40117 -64.60993,18.35157 -103.625,18.94727 -0.0348,0 -0.0675,0.006 -0.10157,0.008 -42.20553,2.15796 -60.77734,42.07226 -60.77734,42.07226 H 610.1875 c 0.41526,0.0238 0.83065,0.0475 1.24609,0.0664 0.62446,-0.0189 1.24882,-0.04 1.87305,-0.0664 h 6.47461 l 0.16992,-0.23632 c 86.68615,-4.39624 155.29901,-73.88276 159.46289,-159.69727 h 0.18555 c 0.003,-0.38655 0.0152,-0.77106 0.0156,-1.1582 -6.1e-4,-1.17383 -0.0203,-2.34342 -0.0449,-3.51172 0.0246,-1.1683 0.0443,-2.33789 0.0449,-3.51172 0,-0.38714 -0.0106,-0.77165 -0.0137,-1.1582 h -0.18945 C 775.24723,207.27815 706.63669,137.79072 619.95117,133.39453 l -0.16992,-0.23633 h -6.47461 c -0.62422,-0.0256 -1.24858,-0.0478 -1.87305,-0.0664 z m -72.75195,42.13476 c -1.70999,0.0211 -3.34863,0.0443 -4.98437,0.0742 1.62272,-0.0298 3.28846,-0.0531 4.98437,-0.0742 z m -10.88867,0.19922 c -1.58885,0.0399 -3.06066,0.0816 -4.54883,0.12695 1.47327,-0.0451 2.97672,-0.0872 4.54883,-0.12695 z m -9.71875,0.29492 c -1.32801,0.0484 -2.48205,0.0949 -3.69336,0.14453 1.19142,-0.0491 2.38873,-0.0967 3.69336,-0.14453 z m -7.8711,0.32032 c -1.07389,0.0495 -1.91749,0.0937 -2.85156,0.14062 0.91836,-0.0463 1.79726,-0.0917 2.85156,-0.14062 z m -6.07421,0.30468 c -3.24066,0.17759 -5.08594,0.30274 -5.08594,0.30274 0,0 2.14196,-0.13843 5.08594,-0.30274 z m -5.08594,242.5293 c 0,0 2.14195,0.13832 5.08594,0.30273 -3.24065,-0.17763 -5.08594,-0.30273 -5.08594,-0.30273 z m 8.30859,0.4668 c 0.91835,0.0461 1.79727,0.0919 2.85156,0.14062 -1.07391,-0.0495 -1.91749,-0.0938 -2.85156,-0.14062 z m 7.0293,0.3164 c 1.19142,0.0491 2.3887,0.0969 3.69336,0.14453 -1.32801,-0.0484 -2.48206,-0.095 -3.69336,-0.14453 z m 8.86328,0.3125 c 1.47326,0.045 2.9767,0.0873 4.54883,0.12696 -1.58888,-0.0401 -3.06064,-0.0816 -4.54883,-0.12696 z m 10.45313,0.25196 c 1.6227,0.0302 3.28846,0.053 4.98437,0.0742 -1.71001,-0.0227 -3.34863,-0.0444 -4.98437,-0.0742 z"
           transform="scale(0.26458334)"
           id="path841"
           inkscape:connector-curvature="0" />
        <path
           style="font-style:normal;font-weight:normal;font-size:122.03208923px;line-height:1.25;font-family:sans-serif;letter-spacing:0px;word-spacing:0px;display:none;opacity:0.37267079;fill:#000000;fill-opacity:1;stroke:none;stroke-width:11.53059101"
           d="m 470.11523,133.1582 v 336.23242 h 93.46094 c 64.85958,0 112.60234,-13.58675 143.23047,-40.76171 C 737.43477,401.45395 752.75,358.89073 752.75,300.9375 752.75,243.28454 737.5112,200.94474 707.0332,173.91992 676.55521,146.74496 628.73602,133.1582 563.57617,133.1582 Z m 45.49219,37.38477 h 54.94922 c 46.39261,0 80.3252,10.50804 101.79492,31.52734 21.61986,20.86917 32.42969,53.82582 32.42969,98.86719 0,45.34165 -10.80983,78.52171 -32.42969,99.54102 -21.46972,21.0193 -55.40231,31.52929 -101.79492,31.52929 h -54.94922 z"
           transform="scale(0.26458334)"
           id="text829"
           inkscape:connector-curvature="0" />
        <path
           style="display:none;fill:#db1f48;fill-opacity:1;stroke:none;stroke-width:0.26458335px;stroke-linecap:butt;stroke-linejoin:miter;stroke-opacity:1"
           d="m 49.788261,34.310969 c 10.854751,6.810138 19.899857,16.47644 25.975065,27.758969 6.075207,11.282528 9.166282,24.154847 8.876718,36.96577 -0.195913,8.667602 -1.953081,17.387272 -5.905115,25.103952 -3.952033,7.71668 -10.192687,14.3841 -18.020769,18.1106 -7.828083,3.7265 -17.261749,4.31281 -25.208333,0.84618 -3.973292,-1.73331 -7.530241,-4.44316 -10.173265,-7.87912 -2.643024,-3.43597 -4.356434,-7.59715 -4.794904,-11.90983 -0.489583,-4.81541 0.608681,-9.72119 2.726053,-14.07373 2.117373,-4.35254 5.222767,-8.17483 8.763394,-11.4751 7.081255,-6.600548 15.80033,-11.112909 23.930613,-16.367421 8.130283,-5.254512 16.021979,-11.653415 20.041862,-20.459773 2.009942,-4.403179 2.964184,-9.34563 2.309495,-14.141382 -0.654688,-4.795751 -2.989741,-9.417249 -6.738451,-12.479115 -3.044172,-2.486415 -6.960629,-3.88259 -10.891182,-3.88259 -3.930552,0 -7.847009,1.396175 -10.891181,3.88259"
           id="path845"
           inkscape:connector-curvature="0"
           inkscape:path-effect="#path-effect847"
           inkscape:original-d="M 49.788261,34.310969 C 60.00457,55.495689 81.949909,74.824491 84.640044,99.035708 87.524238,124.99346 25.785323,141.67431 20.537658,123.30749 5.8084348,71.755203 84.361969,76.948778 71.570624,34.310969 c -7.452807,-24.8426973 -11.141721,-9.388803 -21.782363,0"
           transform="matrix(0.6646408,0,0,0.6646408,120.97896,20.378732)"
           sodipodi:nodetypes="csssc" />
        <path
           style="display:none;fill:#db1f48;fill-opacity:1;stroke:none;stroke-width:0.26458335px;stroke-linecap:butt;stroke-linejoin:miter;stroke-opacity:1"
           d="m 164.02875,35.29397 c -11.65564,7.902554 -65.902512,-5.822624 -70.341043,3.05444 -9.647796,19.29559 48.460953,7.07077 55.240393,7.07077 2.11907,0 7.33675,-1.016838 9.72231,-2.209614 4.12173,-2.060869 30.95203,3.959891 24.74769,10.164231 -1.26464,1.264644 -4.12755,0.956765 -6.18692,0.441923 -3.89391,-0.973479 -4.81835,-4.618787 -7.95462,-6.186925 -3.91332,-1.95666 -17.89092,2.67938 -16.79308,7.07077 0.51975,2.078996 2.04429,4.336569 3.97731,5.303079 0.27364,0.136818 9.03519,-3.633748 9.72231,-3.977307 3.07473,-1.537364 8.56085,3.535384 11.49,3.535384 2.65563,0 7.95462,-2.213706 7.95462,0.441923 0,6.213708 -11.20108,6.433386 -15.02539,7.07077 -11.27296,1.878827 -26.88977,-12.84954 -26.95731,-12.815771 -4.05519,2.027597 -9.3422,4.292531 -13.69962,5.745001 -3.01521,1.005072 -8.4601,-2.902778 -9.7223,0.883846 -2.53542,7.60626 10.0026,5.233003 13.25769,4.419232 8.80711,-2.201778 12.78241,7.354263 19.88654,9.722308 7.08255,2.360851 20.69256,-0.441923 28.28308,-0.441923 6.00017,0 13.47737,0.46573 12.81577,0.883846 -1.85383,1.171578 -3.78937,2.208594 -5.68405,3.312888"
           id="path879"
           inkscape:connector-curvature="0" />
        <path
           style="fill:#db1f48;fill-opacity:1;stroke:none;stroke-width:0.20588236px;stroke-linecap:butt;stroke-linejoin:miter;stroke-opacity:1"
           d="m 148.22634,83.026727 c 2.63687,-2.315849 -11.55127,-5.455182 -12.65089,0.51926 -0.71905,4.592392 8.15022,2.795834 12.65089,-0.51926 z"
           id="path909"
           inkscape:connector-curvature="0"
           sodipodi:nodetypes="ccc" />
        <path
           style="fill:#db1f48;fill-opacity:1;stroke:none;stroke-width:0.12943414px;stroke-linecap:butt;stroke-linejoin:miter;stroke-opacity:1"
           d="m 98.859377,95.353152 c 7.509663,-2.717434 -13.806927,-5.262177 -14.422302,-4.79436 -3.53675,2.688695 4.327286,6.223864 5.646277,6.184601 3.109921,-0.09257 5.976963,-1.306923 8.776025,-1.390241 z"
           id="path1681"
           inkscape:connector-curvature="0" />
      </g>
    </g>
  </g>
</svg>
